:FULLY-SPECIFIED
:DEGREES
2702
root 7.96483 16.7324 -1.6514 7952.14 -93.7017 -7939.45
lowerback 0.474098 -0.657601 -3.1293
upperback 0.996103 -0.882735 0.305375
thorax 0.807628 -0.468653 2.06437
lowerneck -19.6602 -1.72585 -2.2988
upperneck 27.4801 -3.58281 4.53812
head 12.5167 -1.38188 1.49749
rclavicle -1.59028e-015 -1.78906e-015
rhumerus -26.5561 -3.76171 -85.4248
rradius 32.0615
rwrist 23.9762
rhand -18.1736 -8.17385
rfingers 7.12502
rthumb 8.10279 -37.9985
lclavicle -1.59028e-015 -1.78906e-015
lhumerus -33.38 -9.21695 88.8063
lradius 31.8803
lwrist 5.66194
lhand -25.7031 5.25838
lfingers 7.12502
lthumb 0.832511 35.2365
rfemur -42.6025 -7.15866 18.5364
rtibia 69.4636
rfoot -0.500105 5.46205
rtoes -11.5195
lfemur -23.312 -2.39479 -24.7598
ltibia 30.5964
lfoot -17.0607 5.12322
ltoes -6.47407
2703
root 7.98379 16.7242 -1.65092 7953.12 -93.5783 -7940.3
lowerback 0.489068 -0.825943 -3.1184
upperback 0.915336 -1.10878 0.461863
thorax 0.732739 -0.579644 2.2189
lowerneck -19.6788 -1.66066 -2.39704
upperneck 27.3843 -3.49432 4.6883
head 12.4834 -1.33273 1.58538
rclavicle -2.38542e-015 -2.5842e-015
rhumerus -26.7902 -4.51164 -84.9787
rradius 31.3024
rwrist 24.1752
rhand -18.0602 -8.29165
rfingers 7.12502
rthumb 8.21219 -38.1121
lclavicle -2.38542e-015 -2.5842e-015
lhumerus -32.8649 -9.68694 88.7682
lradius 32.6277
lwrist 6.44739
lhand -26.4689 4.94717
lfingers 7.12502
lthumb 0.092836 34.9269
rfemur -43.8498 -7.1823 18.8026
rtibia 67.7815
rfoot -1.0261 5.2748
rtoes -11.7764
lfemur -22.4498 -2.75081 -24.8325
ltibia 30.3619
lfoot -17.7484 5.42606
ltoes -7.22854
2704
root 7.99504 16.7127 -1.64767 7951.87 -93.5947 -7939.05
lowerback 0.547601 -0.946547 -3.03457
upperback 0.897428 -1.27225 0.624309
thorax 0.693521 -0.660523 2.33926
lowerneck -19.6971 -1.55967 -2.44879
upperneck 27.2978 -3.34716 4.76464
head 12.4483 -1.26237 1.64677
rclavicle -1.74931e-014 -7.95139e-015
rhumerus -26.9832 -5.18873 -84.5515
rradius 30.5099
rwrist 23.9619
rhand -18.2504 -8.47009
rfingers 7.12502
rthumb 8.02863 -38.2976
lclavicle -1.74931e-014 -7.95139e-015
lhumerus -32.2904 -9.9726 88.6409
lradius 33.3705
lwrist 6.97635
lhand -26.761 4.91067
lfingers 7.12502
lthumb -0.18921 34.8903
rfemur -44.7734 -7.00007 19.0601
rtibia 65.7779
rfoot -1.55429 5.05999
rtoes -11.5117
lfemur -21.379 -3.29311 -24.8629
ltibia 30.1073
lfoot -18.6307 5.8938
ltoes -6.50851
2705
root 8.01098 16.7046 -1.64942 7953.09 -93.5481 -7940.11
lowerback 0.503472 -1.09826 -3.08442
upperback 0.844086 -1.47401 0.753999
thorax 0.681137 -0.761191 2.49942
lowerneck -19.738 -1.46215 -2.4365
upperneck 27.1852 -3.21145 4.80477
head 12.406 -1.19414 1.68111
rclavicle 1.35174e-014 7.15625e-015
rhumerus -27.141 -5.93086 -84.1335
rradius 29.7661
rwrist 23.6487
rhand -18.4088 -8.77744
rfingers 7.12502
rthumb 7.87578 -38.6107
lclavicle 1.35174e-014 7.15625e-015
lhumerus -31.7533 -10.4255 88.4903
lradius 34.2336
lwrist 7.61249
lhand -27.0979 5.03219
lfingers 7.12502
lthumb -0.514604 35.0113
rfemur -45.7301 -6.82978 19.2115
rtibia 63.4563
rfoot -2.07088 4.76839
rtoes -11.7271
lfemur -20.486 -3.54542 -25.038
ltibia 29.7767
lfoot -19.3126 6.3361
ltoes -6.79669
2706
root 8.02764 16.6961 -1.65261 7951.92 -93.4626 -7938.81
lowerback 0.491431 -1.23658 -2.9925
upperback 0.817336 -1.65904 0.918195
thorax 0.675009 -0.853341 2.61578
lowerneck -19.8321 -1.36408 -2.39536
upperneck 27.0738 -3.06911 4.80283
head 12.3735 -1.124 1.69553
rclavicle -2.70347e-014 1.31198e-014
rhumerus -27.2287 -6.82129 -83.6429
rradius 28.8943
rwrist 23.8074
rhand -18.5648 -8.9556
rfingers 7.12502
rthumb 7.72518 -38.7945
lclavicle -2.70347e-014 1.31198e-014
lhumerus -31.1279 -10.7163 88.2324
lradius 35.0879
lwrist 8.19537
lhand -27.2734 5.04393
lfingers 7.12502
lthumb -0.684162 35.0226
rfemur -46.4959 -6.55115 19.4936
rtibia 60.8179
rfoot -2.6018 4.44349
rtoes -11.8951
lfemur -19.536 -3.65885 -25.0486
ltibia 29.3401
lfoot -19.8863 6.51879
ltoes -6.43995
